<svg xmlns="http://www.w3.org/2000/svg" data-name="S_AdobeFontsBlue_16_N_D@2x" height="32" id="S_AdobeFontsBlue_16_N_D_2x" viewBox="0 0 32 32" width="32">
  <defs>
    <style>
      .blue {
        fill: #2D8CEB;
      }

      
    </style>
  </defs>
  <title>S_AdobeFontsBlue_16_N_D@2x</title>
  <path class="blue" d="M20.109,4.327A11.751,11.751,0,0,0,11.481,8.1a10.081,10.081,0,0,0-1.417-.1A9.806,9.806,0,0,0,.1,18a9.805,9.805,0,0,0,9.964,10H20.109A11.711,11.711,0,0,0,31.9,16.163,11.71,11.71,0,0,0,20.109,4.327Zm-.058.864A10.842,10.842,0,0,1,30.978,16.163,10.842,10.842,0,0,1,20.051,27.136h-9.9a8.945,8.945,0,0,1-9.126-9.165,8.945,8.945,0,0,1,9.126-9.165,9.259,9.259,0,0,1,1.3.094l.362.052.248-.268a10.886,10.886,0,0,1,7.995-3.493Z" />
  <path class="blue" d="M19.834,7.4a8.969,8.969,0,0,0-6.376,2.69,8.056,8.056,0,0,1,2.386,1.471,6.216,6.216,0,1,1,3.99,10.981c-2.932,0-5.275-2.54-7.158-4.581-.372-.4-.724-.784-1.058-1.12A1.353,1.353,0,1,0,9.7,18.745c.3.3.633.663.987,1.047,2,2.171,5.03,5.451,9.147,5.451a8.924,8.924,0,0,0,0-17.847Z" />
  <path class="blue" d="M11.4,22.538H10.357a4.462,4.462,0,0,1,0-8.924c2.031,0,3.256,1.373,4.674,2.963.331.37.673.754,1.027,1.119A1.353,1.353,0,0,0,18,15.811c-.315-.324-.623-.67-.949-1.035-1.537-1.723-3.45-3.868-6.693-3.868a7.168,7.168,0,0,0,0,14.335h4.558c.028,0,.055-.006.082-.008A15.311,15.311,0,0,1,11.4,22.538Z" />
  </svg>