<svg id="S_AdobeFontsRed_18_N_2x" data-name="S_AdobeFontsRed_18_N@2x" xmlns="http://www.w3.org/2000/svg" width="36" height="36" viewBox="0 0 36 36">
  <defs>
    <style>
      .cls-1 {
        fill: #e34850;
      }

      .cls-2 {
        fill: #ff13dc;
        opacity: 0;
      }
    </style>
  </defs>
  <title>S_AdobeFontsRed_18_N@2x</title>
  <path class="cls-1" d="M22.534,3.881a12.967,12.967,0,0,0-9.52,4.159,11.115,11.115,0,0,0-1.563-.113A10.819,10.819,0,0,0,.457,18.964,10.819,10.819,0,0,0,11.451,30H22.534A12.921,12.921,0,0,0,35.543,16.94,12.92,12.92,0,0,0,22.534,3.881Zm-.064.953A11.963,11.963,0,0,1,34.526,16.94,11.964,11.964,0,0,1,22.47,29.047H11.543A9.869,9.869,0,0,1,1.474,18.935,9.869,9.869,0,0,1,11.543,8.823a10.149,10.149,0,0,1,1.433.1l.4.057.274-.3A12.009,12.009,0,0,1,22.47,4.834Z"/>
  <path class="cls-1" d="M22.23,7.267A9.9,9.9,0,0,0,15.2,10.235a8.89,8.89,0,0,1,2.633,1.623,6.858,6.858,0,1,1,4.4,12.115c-3.234,0-5.82-2.8-7.9-5.054-.41-.444-.8-.864-1.167-1.235a1.492,1.492,0,1,0-2.116,2.105c.329.331.7.731,1.089,1.155,2.21,2.395,5.55,6.014,10.092,6.014a9.846,9.846,0,0,0,0-19.691Z"/>
  <path class="cls-1" d="M12.928,23.973H11.774a4.923,4.923,0,0,1,0-9.846c2.241,0,3.592,1.515,5.157,3.269.365.409.742.832,1.133,1.235a1.493,1.493,0,1,0,2.141-2.08c-.347-.357-.687-.738-1.047-1.142-1.7-1.9-3.806-4.267-7.384-4.267a7.908,7.908,0,0,0,0,15.816H16.8c.031,0,.06-.007.091-.009A16.825,16.825,0,0,1,12.928,23.973Z"/>
  <rect id="ToDelete" class="cls-2" width="36" height="36"/>
</svg>
