<svg id="S_Delete_Sm_N_2x" data-name="S_Delete_Sm_N@2x" xmlns="http://www.w3.org/2000/svg" width="32" height="32" viewBox="0 0 32 32">
  <defs>
    <style>
      .fill {
        fill-rule: evenodd;
        opacity: 0.65;
      }

      
    </style>
  </defs>
  <title>S_Delete_Sm_N@2x</title>
  <path class="fill" d="M14,12.6V23.4a0.557,0.557,0,0,0,.5.6h1a0.557,0.557,0,0,0,.5-0.6V12.6a0.557,0.557,0,0,0-.5-0.6h-1A0.557,0.557,0,0,0,14,12.6Z"/>
  <path class="fill" d="M10,12.6V23.4a0.557,0.557,0,0,0,.5.6h1a0.557,0.557,0,0,0,.5-0.6V12.6a0.557,0.557,0,0,0-.5-0.6h-1A0.557,0.557,0,0,0,10,12.6Z"/>
  <path class="fill" d="M25.5,8H20a4,4,0,0,0-4-4H14a4,4,0,0,0-4,4H4.5a0.5,0.5,0,0,0-.5.5v1a0.5,0.5,0,0,0,.5.5H6V26a2,2,0,0,0,2,2H22a2,2,0,0,0,2-2V10h1.5A0.5,0.5,0,0,0,26,9.5v-1A0.5,0.5,0,0,0,25.5,8ZM12,7a1,1,0,0,1,1-1h4a1,1,0,0,1,1,1V8H12V7ZM22,26H8V10H22V26Z"/>
  <path class="fill" d="M18.5,24h1a0.557,0.557,0,0,0,.5-0.6V12.6a0.557,0.557,0,0,0-.5-0.6h-1a0.557,0.557,0,0,0-.5.6V23.4A0.557,0.557,0,0,0,18.5,24Z"/>
  </svg>