<svg xmlns="http://www.w3.org/2000/svg" data-name="S_PoweredByXMP_72x33_N_D@2x" height="66" id="S_PoweredByXMP_72x33_N_D_2x" viewBox="0 0 144 66" width="144">
  <defs>
    <style>
      .cls-1 {
        fill: #fff;
        opacity: 0.65;
        isolation: isolate;
      }

      .cls-2 {
        fill: #0293bf;
      }

      
    </style>
  </defs>
  <title>S_PoweredByXMP_72x33_N_D@2x</title>
  <path class="cls-1" d="M46,.785A15.96,15.96,0,0,1,49.053.5a5.192,5.192,0,0,1,3.686,1.156,4.1,4.1,0,0,1,1.176,3.059,4.571,4.571,0,0,1-1,3.076A5.2,5.2,0,0,1,48.921,9.4a5.9,5.9,0,0,1-1.133-.086v5.976H46Zm1.791,7.066a4.1,4.1,0,0,0,1.11.107A2.913,2.913,0,0,0,52.12,5.387a2.863,2.863,0,0,0,.008-.563,2.681,2.681,0,0,0-2.986-2.883,6.314,6.314,0,0,0-1.351.128Z" />
  <path class="cls-1" d="M59.674,15.484c-2.378,0-4.252-1.9-4.252-5.431,0-3.685,2.029-5.519,4.406-5.519,2.445,0,4.236,1.986,4.236,5.412,0,3.99-2.313,5.54-4.36,5.54h-.03Zm.067-1.4c1.633,0,2.465-2.092,2.465-4.1,0-1.7-.588-4.057-2.465-4.057s-2.508,2.29-2.508,4.079c0,2.028.8,4.076,2.487,4.076Z" />
  <path class="cls-1" d="M67,4.733l1.225,5.255c.261,1.154.5,2.288.675,3.378h.067c.194-1.067.5-2.267.8-3.358l1.462-5.276h1.459l1.4,5.168c.305,1.22.588,2.333.807,3.465h.064a33.528,33.528,0,0,1,.706-3.424l1.241-5.21H78.7L75.662,15.294h-1.57l-1.4-5.088a30.459,30.459,0,0,1-.762-3.337h-.044a30.588,30.588,0,0,1-.807,3.38l-1.462,5.045H68.028L65.148,4.738H67Z" />
  <path class="cls-1" d="M81.529,10.249c.022,2.924,1.485,3.8,3.059,3.8a5.7,5.7,0,0,0,2.333-.458l.3,1.286a6.906,6.906,0,0,1-2.921.588c-2.881,0-4.517-2.117-4.517-5.32,0-3.294,1.68-5.607,4.276-5.607,2.791,0,3.663,2.64,3.663,4.8,0,.393-.022.676-.043.916ZM86,8.941c.02-1.657-.634-3.075-2.118-3.075-1.529,0-2.224,1.68-2.333,3.075Z" />
  <path class="cls-1" d="M89.814,7.742c0-1.069-.042-2.136-.083-3.009h1.59l.065,1.875h.067a2.852,2.852,0,0,1,2.574-2.073c.173,0,.3.024.438.024V6.324a3.213,3.213,0,0,0-.48-.02,2.48,2.48,0,0,0-2.314,2.31,6.308,6.308,0,0,0-.067.941v5.739h-1.79Z" />
  <path class="cls-1" d="M97.209,10.249c.022,2.924,1.482,3.8,3.053,3.8a5.716,5.716,0,0,0,2.337-.458l.3,1.286a6.923,6.923,0,0,1-2.924.588c-2.879,0-4.515-2.117-4.515-5.32,0-3.294,1.68-5.607,4.273-5.607,2.794,0,3.664,2.64,3.664,4.8,0,.393-.021.676-.041.916H97.209ZM101.68,8.94c.022-1.658-.633-3.075-2.118-3.075-1.529,0-2.224,1.68-2.335,3.075h4.453Z" />
  <path class="cls-1" d="M113.241,0V12.671c0,.807.044,1.941.086,2.618h-1.572l-.108-1.595h-.066a3.159,3.159,0,0,1-2.9,1.79c-2.165,0-3.8-2.05-3.8-5.386,0-3.623,1.875-5.564,3.971-5.564a2.712,2.712,0,0,1,2.55,1.412h.044V0Zm-1.789,8.875a4.531,4.531,0,0,0-.044-.763,2.375,2.375,0,0,0-2.183-2.118c-1.7,0-2.527,1.833-2.527,4.058,0,2.182.823,3.947,2.47,3.947a2.3,2.3,0,0,0,2.2-2.028,2.757,2.757,0,0,0,.086-.762V8.875Z" />
  <path class="cls-1" d="M120.112.807A13.781,13.781,0,0,1,123.074.5a5.216,5.216,0,0,1,3.647,1.049A3.2,3.2,0,0,1,127.812,4.1a3.424,3.424,0,0,1-2.378,3.249v.045a3.7,3.7,0,0,1,2.882,3.728,4.018,4.018,0,0,1-1.157,2.9,5.985,5.985,0,0,1-4.471,1.375,20.626,20.626,0,0,1-2.57-.154V.807ZM121.9,6.825h1.264A2.6,2.6,0,0,0,126.009,4.5c.007-.069.011-.137.012-.206,0-1.529-.961-2.4-2.834-2.4a5.559,5.559,0,0,0-1.287.111V6.825Zm0,7.066a5.864,5.864,0,0,0,1.22.089c1.854,0,3.313-.874,3.313-2.88s-1.567-2.921-3.38-2.921H121.9Z" />
  <path class="cls-1" d="M131.231,4.733l1.856,6.149c.215.764.414,1.506.567,2.162h.044c.151-.612.353-1.42.567-2.184l1.656-6.126h1.855l-2.314,7.131c-1,3.141-1.83,5.343-3.1,6.717A5.38,5.38,0,0,1,130.235,20l-.549-1.507a5.265,5.265,0,0,0,1.595-1.133,7.079,7.079,0,0,0,1.264-1.962,1.375,1.375,0,0,0,.133-.5,1.259,1.259,0,0,0-.091-.436l-3.266-9.726h1.91Z" />
  <path class="cls-2" d="M14.747,39.845l.052.075L3.053,56H14.64l6.44-10.228L27.513,56H39.106L27.589,40.242Zm13.106-.6L38.621,25H27.033L21.08,34.188,15.126,25H3.533l10.89,14.411ZM95.173,26.4q-2.634-2.394-8.22-2.395a16.977,16.977,0,0,0-6.8,1.242,8.092,8.092,0,0,0-4.147,3.73h-.15a6.577,6.577,0,0,0-3.5-3.7,14.849,14.849,0,0,0-6.494-1.271,18.831,18.831,0,0,0-6.237.923A12.294,12.294,0,0,0,54.907,28h-.18V25H44.053V39.056l11.154-.135V35.459a4.919,4.919,0,0,1,1.57-4.049,6.536,6.536,0,0,1,4.228-1.273,4.5,4.5,0,0,1,3.34,1.05A4.151,4.151,0,0,1,65.354,34.2v4.6l11.152-.132v-3.21a4.926,4.926,0,0,1,1.566-4.049A6.531,6.531,0,0,1,82.3,30.137a4.509,4.509,0,0,1,3.34,1.05A4.166,4.166,0,0,1,86.651,34.2v4.357L97.8,38.418V33.325a8.875,8.875,0,0,0-2.631-6.918ZM65.35,56H76.5V41.733L65.35,41.392Zm-21.3,0H55.207V41.082l-11.154-.344Zm42.593,0H97.8V42.388l-11.152-.345Zm48.14-28.144q-3.218-3.843-10.062-3.844a14.8,14.8,0,0,0-5.673.954,10.976,10.976,0,0,0-4.148,3.15h-.182V25H104.055V38.334l17.293-.207-6.372-7.5h7.649l9.187,9.98L122.59,50.59l-7.648.015,6.415-7.485-17.3-.531V66H115.2V53.045h.2a10.769,10.769,0,0,0,3.982,2.677,15.285,15.285,0,0,0,5.351.833q6.841,0,10.049-3.757T138,40.368Q138.011,31.7,134.786,27.851Z" />
  </svg>